<svg width="316" height="263" viewBox="0 0 316 263" fill="none" xmlns="http://www.w3.org/2000/svg">
<path d="M295 141.5C295 208.603 240.603 263 173.5 263C106.397 263 52 208.603 52 141.5C52 74.3974 106.397 20 173.5 20C240.603 20 295 74.3974 295 141.5Z" fill="#CDE1FD"/>
<mask id="mask0" style="mask-type:alpha" maskUnits="userSpaceOnUse" x="52" y="20" width="243" height="243">
<path d="M295 141.5C295 208.603 240.603 263 173.5 263C106.397 263 52 208.603 52 141.5C52 74.3974 106.397 20 173.5 20C240.603 20 295 74.3974 295 141.5Z" fill="#CDE1FD"/>
</mask>
<g mask="url(#mask0)">
<path d="M123.209 28.3125C127.609 25.5125 129.375 20.1458 129.709 17.8125L131.207 14.8125L151.707 15.8125C151.54 23.8125 151.8 40.1125 151 41.3125C150.2 42.5125 150.167 47.9792 151 49.8125L151.707 56.8125H132.707L132.5 48.5C132.5 46.6667 133.8 43.3499 133.5 43.5C132.5 44 127.5 44 125.379 40.3125C122.5 34.5 126 29 124.709 30.3125C124.007 31.0253 122.209 28.8125 123.209 28.3125Z" fill="#FFB3A4"/>
<path d="M72.5 76.5C73.7 77.3 77.5 75.5 78.5 75L90 102.5C69.5 116 48.6667 92.6667 42 79.5C35.5 67.1667 22.2 42 21 40C20.1888 38.648 19.4842 35.3917 19.0098 32.5484C18.8432 31.5498 20.0799 31.0313 20.7015 31.8305L25.5 38L29 32L24.7285 24.3112C24.4016 23.723 24.827 23 25.5 23C26.6667 25.6667 29.4 31.2 31 32C32.6 32.8 36.3333 39.6667 38 43C49 53.8333 71.3 75.7 72.5 76.5Z" fill="#F4BAB4"/>
<path d="M143 37C144.037 37.7546 146.289 38.8111 147 37" stroke="#D77C6A" stroke-width="0.5" stroke-linecap="round"/>
<path d="M133.379 34.8125C131.779 35.6125 127.712 34.4792 125.879 33.8125C125.879 35.3125 126.879 39.8125 129.879 39.8125C132.879 39.8125 135.379 33.8125 133.379 34.8125Z" fill="white"/>
<path d="M131.879 20.207C133.869 20.0093 135.958 20.8066 136.205 23.2944" stroke="black" stroke-linecap="round"/>
<path d="M142.877 6.31291C137.677 0.31291 134.044 3.81291 132.877 6.31291C130.376 5.81332 123.377 5.8125 120.877 7.8125C118.377 9.8125 121.377 18.3125 127.877 17.3125C134.377 16.3125 142.877 18.8125 145.377 21.3125C147.877 23.8125 143.877 29.8125 145.877 29.3125C147.877 28.8125 150.377 28.3125 148.377 33.3125C146.377 38.3125 149.377 41.3125 150.877 40.3125C152.377 39.3125 161.377 32.8125 157.877 19.3125C152.377 5.8125 145.877 6.31291 142.877 6.31291Z" fill="black" stroke="black"/>
<circle cx="132.879" cy="23.8125" r="1" fill="black"/>
<path d="M133.699 43.5205C134.739 43.3965 137.232 42.4081 138.888 39.4461" stroke="#D77C6A" stroke-width="0.5" stroke-linecap="round"/>
<path d="M132.5 48.5C120.9 46.9 90.3333 64.1667 76.5 73L91 107.5L109 96L101 172.5L189.5 176.5L207 135C213 135 220.2 126.3 201 91.5C177 48 155.5 47.5 151 47.5C148 54.5 140 55 139 55C132.5 55 132.5 50 132.5 48.5Z" fill="#0069FE"/>
<g filter="url(#filter0_d)">
<path d="M131 48.5C130.5 49 129.5 57.5 135 58.5C140.5 59.5 151.5 56 154 47.5" stroke="#434343" stroke-width="0.5" stroke-linecap="round"/>
</g>
<path d="M109 97C109.667 90.1667 111.9 74.9 115.5 68.5M143 83.5L168 125L176 119.5L204.5 98.5" stroke="#434343" stroke-width="0.5" stroke-linecap="round"/>
<path d="M96 241.915L106 165.898L103 161.5L179 162L163 277L96 241.915Z" fill="#010101"/>
<path d="M181 269.418L182 243.918L216.5 244.418L215 272.418L181 269.418Z" fill="#FFBA97"/>
<path d="M217 269.418L218 243.918L252.5 244.418L251 272.418L217 269.418Z" fill="#FFBA97"/>
<path d="M177.298 242.745L178.5 229.918L184.241 168.207C184.387 166.637 185.723 165.448 187.3 165.485L244.365 166.855C245.872 166.891 247.118 168.04 247.277 169.539L255.15 244.103C255.337 245.875 253.948 247.418 252.167 247.418H222.5L180.186 246.023C178.458 245.966 177.136 244.466 177.298 242.745Z" fill="#010106"/>
<path d="M177.298 242.745L178.5 229.918L184.242 168.188C184.388 166.626 185.712 165.439 187.281 165.466L244.346 166.454C245.861 166.48 247.119 167.633 247.277 169.14L255.152 244.105C255.338 245.876 253.949 247.418 252.168 247.418H222.5L180.186 246.023C178.458 245.966 177.136 244.466 177.298 242.745Z" fill="#010106"/>
<path d="M236 92.9182H212.5L211 166.918H248L236 92.9182Z" fill="#FF6F1D"/>
<path d="M234 80.9182C242.5 83.4182 263.2 92.4182 274 106.418C274.8 105.618 280.667 97.7515 283.5 93.9182L303.5 110.918L303.487 110.967C299.652 125.138 293.487 147.924 282 152.918C274.956 155.981 271.919 151.79 271.535 151C276.005 161.57 277.029 190.799 249.5 221.918C249.5 210.918 240 92.9182 234 80.9182Z" fill="#F9EF06"/>
<path d="M144 142.918C162 95.3182 197.167 81.7515 212.5 80.9182C212.667 87.4182 213.2 110.218 214 149.418C214.8 188.618 209 225.085 206 238.418L143 224.918L150 186.918C148 180.752 143.8 168.118 143 166.918C142 165.418 141.5 149.418 144 142.918Z" fill="#F9EF06"/>
<path d="M177.5 153.418V145.918L198 115.418" stroke="#434343" stroke-width="0.5"/>
<path d="M174.5 206.918L160 184.418L181.5 173.918C183.667 179.918 188.3 192.518 189.5 194.918C187.9 198.118 178.833 204.252 174.5 206.918Z" fill="#FFBA97"/>
<path d="M177.442 153.092L143.485 167.776C142.683 168.123 142.346 169.077 142.752 169.85L151.829 187.14C152.204 187.854 153.075 188.144 153.803 187.797L183.847 173.468C184.512 173.151 184.848 172.399 184.641 171.693L179.477 154.047C179.224 153.182 178.269 152.734 177.442 153.092Z" fill="#FF6F21"/>
<path d="M210 80.9182C211.333 124.252 212.1 214.918 204.5 230.918" stroke="#434343" stroke-width="0.5"/>
<path d="M208.327 230.9L207.177 237.417C207.08 237.967 206.55 238.331 206.002 238.224L140.987 225.61C140.443 225.504 140.088 224.976 140.197 224.432L141.308 218.879C141.415 218.345 141.929 217.995 142.465 218.091L207.518 229.742C208.061 229.84 208.422 230.358 208.327 230.9Z" fill="#FF6F21"/>
<path d="M260.5 188.418C260.667 191.252 262.1 196.818 266.5 196.418" stroke="#434343" stroke-width="0.5" stroke-linecap="round"/>
<path d="M267 117.418C267.5 115.252 271.2 108.618 276 105.418" stroke="#434343" stroke-width="0.5" stroke-linecap="round"/>
<path d="M292.715 79.389L283.642 94.3583C283.27 94.9735 283.386 95.7668 283.92 96.2489L296.572 107.677C297.429 108.451 298.802 108.012 299.046 106.883C301.18 97.0292 304.767 81.0176 305.5 79.9182C306.5 78.4182 309.5 64.4182 310 60.4182C310.5 56.4182 305.5 56.4182 305.5 57.4182C305.5 58.4182 305 60.9182 304.5 63.4182C304.185 64.9949 304.367 67.193 303.968 68.2979C303.799 68.7663 303.24 68.772 302.806 68.5278L296.44 64.9469C295.878 64.631 295.579 63.9881 295.842 63.3997C297.517 59.6459 303.79 53.4182 296.5 53.4182C295.699 53.4182 294.73 59.1608 294.176 63.1145C294.072 63.8607 293.411 64.4439 292.761 64.8259C292.514 64.9716 292.253 65.1648 292 65.4182C291.233 66.185 292.242 74.0555 292.915 78.3769C292.969 78.7281 292.899 79.0851 292.715 79.389Z" fill="#FFBA97"/>
<path d="M293.933 132.142L275.111 104.806C274.746 104.276 274.76 103.571 275.147 103.056L282.512 93.2355C283.042 92.5287 284.065 92.4309 284.72 93.0245L304.219 110.71C304.687 111.135 304.839 111.808 304.597 112.393L296.555 131.864C296.101 132.964 294.608 133.122 293.933 132.142Z" fill="#FF6F21"/>
<path d="M235 80.9182C242.485 107.662 256.678 163.485 252.5 218.5" stroke="#434343" stroke-width="0.5" stroke-linecap="round"/>
<path d="M300 65.4182H295C296.333 65.9182 301 68.9182 299 68.4182C297 67.9182 297 68.4182 298 70.9182C299 73.4182 299 70.4182 299 72.4182C299 74.4182 299.5 75.4182 300 73.9182C300.5 72.4182 301 73.4182 301 70.9182C301 68.4182 302.5 67.9182 303 67.9182C303.5 67.9182 305 67.4182 305.5 64.9182" stroke="#D77C6A" stroke-width="0.5"/>
<g filter="url(#filter1_f)">
<path d="M297.333 44.9182L295 65.6629L304.333 69.9182L309 49.7054L297.333 44.9182Z" fill="#91A6D0"/>
</g>
<path d="M253.5 99.9182C258.167 106.418 268.3 126.118 271.5 152.918" stroke="#434343" stroke-width="0.5" stroke-linecap="round"/>
<path d="M215 79.9182L216.5 68.9182L212.5 67.4182L213 47.9182L218 46.9182L229 45.4182L235 44.4182L236.5 46.4182L239 49.9182L242 57.9182L238 70.4182L229 72.9182L229.5 79.4182L235 80.9182C235 84.7515 236 92.6182 236 95.4182C233.5 97.4182 220 96.9182 216.5 96.4182C213.7 96.0182 212.667 94.2515 212.5 93.4182V80.9182L215 79.9182Z" fill="#FFBA97"/>
<path d="M219.149 68.5491C221.365 70.3517 226.61 73.7922 229.862 73.1328" stroke="#D77C6A" stroke-width="0.5" stroke-linecap="round"/>
<path d="M234.885 61.7008C233.984 63.2462 229.434 63.3542 227.272 63.215C227.084 63.537 227.133 65.7249 231.039 66.9647C235.924 68.5153 236.011 59.7692 234.885 61.7008Z" fill="white" stroke="white" stroke-width="0.5" stroke-linecap="round"/>
<path d="M230 53.4182C231.667 54.7515 234.8 57.6182 234 58.4182C233.2 59.2182 232.333 59.4182 232 59.4182C232 59.7515 231.8 60.4182 231 60.4182" stroke="#D77C6A" stroke-width="0.5" stroke-linecap="round"/>
<path d="M220 53.9182C220.667 52.7516 222.7 50.7182 225.5 51.9182" stroke="black" stroke-linecap="round"/>
<path d="M229.8 49.7846C230.467 48.6179 232.5 46.5846 235.3 47.7846" stroke="black" stroke-linecap="round"/>
<path d="M215 80.4183C205 81.6183 188.5 88.4182 182.5 91.9183C180.786 92.9182 175 90.9182 174 79.9182C173 68.9182 188 65.9183 195 61.9182C194 52.9182 200 45.9182 202 42.9182C193 45.9182 184.5 33.9182 194 26.4182C208 16.9182 212 29.9183 212.5 32.9183C222 31.4183 221.5 35.9183 229 34.9183C240 32.9183 237.5 43.4183 237 43.9183C253.5 68.9183 243 73.9183 240.5 76.9183C246 80.4183 245.5 86.4183 244.5 84.9183C243.7 83.7183 234.167 80.7516 229.5 79.4183L229.014 73.1029L229.013 73.0909C229.006 72.9938 229.001 72.934 229.101 72.9356C229.841 72.9471 233.354 72.6061 237 67.9183C240.5 63.4182 236 47.9183 234.5 45.4183C231.5 48.9183 219 48.9183 218 48.9183C218.5 50.4183 218.5 57.9183 218 59.4183C214.5 57.9183 213 62.9183 214 64.9183C215 66.9183 216.5 67.9183 216.5 68.9183C216.5 69.9183 215.5 76.4183 215 80.4183Z" fill="#E33D3C"/>
<path d="M202 42.9182C203 39.9182 206.5 33.7182 212.5 32.9182" stroke="black" stroke-width="0.5" stroke-linecap="round"/>
<rect x="216" y="64.9182" width="2" height="2" fill="#0B0B0B"/>
<circle cx="224" cy="55.9182" r="1" fill="black"/>
<circle cx="234" cy="51.9182" r="1" fill="black"/>
</g>
<path d="M123.209 28.3125C127.609 25.5125 129.375 20.1458 129.709 17.8125L131.207 14.8125L151.707 15.8125C151.54 23.8125 151.8 40.1125 151 41.3125C150.2 42.5125 150.167 47.9792 151 49.8125L151.707 56.8125H132.707L132.5 48.5C132.5 46.6667 133.8 43.3499 133.5 43.5C132.5 44 127.5 44 125.379 40.3125C122.5 34.5 126 29 124.709 30.3125C124.007 31.0253 122.209 28.8125 123.209 28.3125Z" fill="#FFB3A4"/>
<g filter="url(#filter2_f)">
<path d="M24.3343 36.6778L24.6778 34.6657L22.6657 34.3222L22.3222 36.3343L24.3343 36.6778ZM15 23.5L14.794 23.3584L14.6951 23.5021L14.796 23.6445L15 23.5ZM20.5 15.5L20.7236 15.3882L20.5341 15.0091L20.294 15.3584L20.5 15.5ZM25.2764 25.6118C25.3381 25.7353 25.4883 25.7854 25.6118 25.7236C25.7353 25.6619 25.7854 25.5117 25.7236 25.3882L25.2764 25.6118ZM23.704 35.3555L15.204 23.3555L14.796 23.6445L23.296 35.6445L23.704 35.3555ZM15.206 23.6416L20.706 15.6416L20.294 15.3584L14.794 23.3584L15.206 23.6416ZM20.2764 15.6118L25.2764 25.6118L25.7236 25.3882L20.7236 15.3882L20.2764 15.6118Z" fill="black"/>
<path d="M29.5 33L26 39L15 23.5L20.5 16L29.5 33Z" fill="#E2EFFF"/>
<g filter="url(#filter3_f)">
<path d="M19.9048 21.2629C20.8186 21.7882 19.9048 22.7298 20.381 22.7298C20.8571 22.7298 24.3532 23.796 25.5 26C26.5118 27.9445 28.1206 29.8808 29.3117 31.3869C30.0645 32.339 30.04 33.6441 29.3345 34.6317L27.6816 36.9458C26.5635 38.511 24.3553 38.5689 23.3583 36.9239C21.8552 34.4439 20.3697 31.5052 19.9048 30.5C18 26.3816 19.4286 23.1873 18.9524 23.1873H18.9522C18.5825 23.1873 18.0336 23.1873 18.0015 22.7691C18.0005 22.9008 18 23.0402 18 22.7297C18 22.7432 18.0005 22.7563 18.0015 22.7691C18.0019 22.7066 18.0025 22.6459 18.0032 22.6357C18.0637 21.7245 18.4762 20.4418 19.9048 21.2629Z" fill="#4D5566"/>
<path d="M19.9048 21.2629C20.8186 21.7882 19.9048 22.7298 20.381 22.7298C20.8571 22.7298 24.3532 23.796 25.5 26C26.5118 27.9445 28.1206 29.8808 29.3117 31.3869C30.0645 32.339 30.04 33.6441 29.3345 34.6317L27.6816 36.9458C26.5635 38.511 24.3553 38.5689 23.3583 36.9239C21.8552 34.4439 20.3697 31.5052 19.9048 30.5C18 26.3816 19.4286 23.1873 18.9524 23.1873H18.9522C18.5825 23.1873 18.0336 23.1873 18.0015 22.7691C18.0005 22.9008 18 23.0402 18 22.7297C18 22.7432 18.0005 22.7563 18.0015 22.7691C18.0019 22.7066 18.0025 22.6459 18.0032 22.6357C18.0637 21.7245 18.4762 20.4418 19.9048 21.2629Z" stroke="black"/>
</g>
</g>
<path d="M72.5 76.5C73.7 77.3 77.5 75.5 78.5 75L90 102.5C69.5 116 48.6667 92.6667 42 79.5C35.5 67.1667 22.2 42 21 40C20.1888 38.648 19.4842 35.3917 19.0098 32.5484C18.8432 31.5498 20.0799 31.0313 20.7015 31.8305L25.5 38L29 32L24.7285 24.3112C24.4016 23.723 24.827 23 25.5 23C26.6667 25.6667 29.4 31.2 31 32C32.6 32.8 36.3333 39.6667 38 43C49 53.8333 71.3 75.7 72.5 76.5Z" fill="#F4BAB4"/>
<path d="M27 35.5L30.5 36.5C30 37.5 29.3 39.7 30.5 40.5C32 41.5 32.5 42.5 32.5 43C32.5 43.5 26.5 40.5 25.5 38" stroke="#D77C6A" stroke-width="0.5" stroke-linecap="round"/>
<path d="M143 37C144.037 37.7546 146.289 38.8111 147 37" stroke="#D77C6A" stroke-width="0.5" stroke-linecap="round"/>
<path d="M133.379 34.8125C131.779 35.6125 127.712 34.4792 125.879 33.8125C125.879 35.3125 126.879 39.8125 129.879 39.8125C132.879 39.8125 135.379 33.8125 133.379 34.8125Z" fill="white"/>
<path d="M131.879 20.207C133.869 20.0093 135.958 20.8066 136.205 23.2944" stroke="black" stroke-linecap="round"/>
<path d="M142.877 6.31291C137.677 0.31291 134.044 3.81291 132.877 6.31291C130.376 5.81332 123.377 5.8125 120.877 7.8125C118.377 9.8125 121.377 18.3125 127.877 17.3125C134.377 16.3125 142.877 18.8125 145.377 21.3125C147.877 23.8125 143.877 29.8125 145.877 29.3125C147.877 28.8125 150.377 28.3125 148.377 33.3125C146.377 38.3125 149.377 41.3125 150.877 40.3125C152.377 39.3125 161.377 32.8125 157.877 19.3125C152.377 5.8125 145.877 6.31291 142.877 6.31291Z" fill="black" stroke="black"/>
<circle cx="132.879" cy="23.8125" r="1" fill="black"/>
<path d="M133.699 43.5205C134.739 43.3965 137.232 42.4081 138.888 39.4461" stroke="#D77C6A" stroke-width="0.5" stroke-linecap="round"/>
<path d="M132.5 48.5C120.9 46.9 90.3333 64.1667 76.5 73L91 107.5L109 96L101 172.5L189.5 176.5L207 135C213 135 220.2 126.3 201 91.5C177 48 155.5 47.5 151 47.5C148 54.5 140 55 139 55C132.5 55 132.5 50 132.5 48.5Z" fill="#0069FE"/>
<g filter="url(#filter4_d)">
<path d="M131 48.5C130.5 49 129.5 57.5 135 58.5C140.5 59.5 151.5 56 154 47.5" stroke="#434343" stroke-width="0.5" stroke-linecap="round"/>
</g>
<path d="M109 97C109.667 90.1667 111.9 74.9 115.5 68.5M143 83.5L168 125L176 119.5L204.5 98.5" stroke="#434343" stroke-width="0.5" stroke-linecap="round"/>
<path d="M236 92.9182H212.5L211 166.918H248L236 92.9182Z" fill="#FF6F1D"/>
<path d="M144 142.918C162 95.3182 197.167 81.7515 212.5 80.9182C212.667 87.4182 213.2 110.218 214 149.418C214.8 188.618 209 225.085 206 238.418L143 224.918L150 186.918C148 180.752 143.8 168.118 143 166.918C142 165.418 141.5 149.418 144 142.918Z" fill="#F9EF06"/>
<path d="M177.5 153.418V145.918L198 115.418" stroke="#434343" stroke-width="0.5"/>
<path d="M174.5 206.918L160 184.418L181.5 173.918C183.667 179.918 188.3 192.518 189.5 194.918C187.9 198.118 178.833 204.252 174.5 206.918Z" fill="#FFBA97"/>
<path d="M177.442 153.092L143.485 167.776C142.683 168.123 142.346 169.077 142.752 169.85L151.829 187.14C152.204 187.854 153.075 188.144 153.803 187.797L183.847 173.468C184.512 173.151 184.848 172.399 184.641 171.693L179.477 154.047C179.224 153.182 178.269 152.734 177.442 153.092Z" fill="#FF6F21"/>
<path d="M210 80.9182C211.333 124.252 212.1 214.918 204.5 230.918" stroke="#434343" stroke-width="0.5"/>
<path d="M208.327 230.9L207.177 237.417C207.08 237.967 206.55 238.331 206.002 238.224L140.987 225.61C140.443 225.504 140.088 224.976 140.197 224.432L141.308 218.879C141.415 218.345 141.929 217.995 142.465 218.091L207.518 229.742C208.061 229.84 208.422 230.358 208.327 230.9Z" fill="#FF6F21"/>
<path d="M260.5 188.418C260.667 191.252 262.1 196.818 266.5 196.418" stroke="#434343" stroke-width="0.5" stroke-linecap="round"/>
<g filter="url(#filter5_f)">
<path d="M296.5 54.4182L297.457 45.325C297.478 45.1235 297.689 45.0005 297.875 45.0813L308.77 49.8183C308.903 49.8761 308.976 50.0209 308.943 50.1621L307 58.4182" stroke="black"/>
</g>
<path d="M267 117.418C267.5 115.252 271.2 108.618 276 105.418" stroke="#434343" stroke-width="0.5" stroke-linecap="round"/>
<path d="M292.715 79.389L283.642 94.3583C283.27 94.9735 283.386 95.7668 283.92 96.2489L296.572 107.677C297.429 108.451 298.802 108.012 299.046 106.883C301.18 97.0292 304.767 81.0176 305.5 79.9182C306.5 78.4182 309.5 64.4182 310 60.4182C310.5 56.4182 305.5 56.4182 305.5 57.4182C305.5 58.4182 305 60.9182 304.5 63.4182C304.185 64.9949 304.367 67.193 303.968 68.2979C303.799 68.7663 303.24 68.772 302.806 68.5278L296.44 64.9469C295.878 64.631 295.579 63.9881 295.842 63.3997C297.517 59.6459 303.79 53.4182 296.5 53.4182C295.699 53.4182 294.73 59.1608 294.176 63.1145C294.072 63.8607 293.411 64.4439 292.761 64.8259C292.514 64.9716 292.253 65.1648 292 65.4182C291.233 66.185 292.242 74.0555 292.915 78.3769C292.969 78.7281 292.899 79.0851 292.715 79.389Z" fill="#FFBA97"/>
<path d="M293.933 132.142L275.111 104.806C274.746 104.276 274.76 103.571 275.147 103.056L282.512 93.2355C283.042 92.5287 284.065 92.4309 284.72 93.0245L304.219 110.71C304.687 111.135 304.839 111.808 304.597 112.393L296.555 131.864C296.101 132.964 294.608 133.122 293.933 132.142Z" fill="#FF6F21"/>
<path d="M235 80.9182C242.485 107.662 256.678 163.485 252.5 218.5" stroke="#434343" stroke-width="0.5" stroke-linecap="round"/>
<path d="M300 65.4182H295C296.333 65.9182 301 68.9182 299 68.4182C297 67.9182 297 68.4182 298 70.9182C299 73.4182 299 70.4182 299 72.4182C299 74.4182 299.5 75.4182 300 73.9182C300.5 72.4182 301 73.4182 301 70.9182C301 68.4182 302.5 67.9182 303 67.9182C303.5 67.9182 305 67.4182 305.5 64.9182" stroke="#D77C6A" stroke-width="0.5"/>
<g filter="url(#filter6_f)">
<path d="M297.333 44.9182L295 65.6629L304.333 69.9182L309 49.7054L297.333 44.9182Z" fill="#91A6D0"/>
</g>
<g filter="url(#filter7_f)">
<path d="M306.5 52.4182L298.5 47.9182L296 63.9182L304.5 67.9182L306.5 52.4182Z" fill="#E5F0FF"/>
</g>
<g filter="url(#filter8_f)">
<path d="M302.272 52.0432C299.46 51.6306 299.929 54.2781 300.515 55.6534C300.847 56.685 300.515 56.1692 298.757 56.6849C297.351 57.0975 297 62.0144 297 64.4212L303.444 67C303.639 66.1404 304.147 64.3181 304.615 63.9055C305.201 63.3897 305.201 59.7794 304.029 58.7479C302.858 57.7164 301.686 56.6849 303.444 56.1692C305.201 55.6534 305.787 52.5589 302.272 52.0432Z" fill="#4D5566"/>
</g>
<path d="M253.5 99.9182C258.167 106.418 268.3 126.118 271.5 152.918" stroke="#434343" stroke-width="0.5" stroke-linecap="round"/>
<path d="M215 79.9182L216.5 68.9182L212.5 67.4182L213 47.9182L218 46.9182L229 45.4182L235 44.4182L236.5 46.4182L239 49.9182L242 57.9182L238 70.4182L229 72.9182L229.5 79.4182L235 80.9182C235 84.7515 236 92.6182 236 95.4182C233.5 97.4182 220 96.9182 216.5 96.4182C213.7 96.0182 212.667 94.2515 212.5 93.4182V80.9182L215 79.9182Z" fill="#FFBA97"/>
<path d="M219.149 68.5491C221.365 70.3517 226.61 73.7922 229.862 73.1328" stroke="#D77C6A" stroke-width="0.5" stroke-linecap="round"/>
<path d="M234.885 61.7008C233.984 63.2462 229.434 63.3542 227.272 63.215C227.084 63.537 227.133 65.7249 231.039 66.9647C235.924 68.5153 236.011 59.7692 234.885 61.7008Z" fill="white" stroke="white" stroke-width="0.5" stroke-linecap="round"/>
<path d="M230 53.4182C231.667 54.7515 234.8 57.6182 234 58.4182C233.2 59.2182 232.333 59.4182 232 59.4182C232 59.7515 231.8 60.4182 231 60.4182" stroke="#D77C6A" stroke-width="0.5" stroke-linecap="round"/>
<path d="M220 53.9182C220.667 52.7516 222.7 50.7182 225.5 51.9182" stroke="black" stroke-linecap="round"/>
<path d="M229.8 49.7846C230.467 48.6179 232.5 46.5846 235.3 47.7846" stroke="black" stroke-linecap="round"/>
<path d="M215 80.4183C205 81.6183 188.5 88.4182 182.5 91.9183C180.786 92.9182 175 90.9182 174 79.9182C173 68.9182 188 65.9183 195 61.9182C194 52.9182 200 45.9182 202 42.9182C193 45.9182 184.5 33.9182 194 26.4182C208 16.9182 212 29.9183 212.5 32.9183C222 31.4183 221.5 35.9183 229 34.9183C240 32.9183 237.5 43.4183 237 43.9183C253.5 68.9183 243 73.9183 240.5 76.9183C246 80.4183 245.5 86.4183 244.5 84.9183C243.7 83.7183 234.167 80.7516 229.5 79.4183L229.014 73.1029L229.013 73.0909C229.006 72.9938 229.001 72.934 229.101 72.9356C229.841 72.9471 233.354 72.6061 237 67.9183C240.5 63.4182 236 47.9183 234.5 45.4183C231.5 48.9183 219 48.9183 218 48.9183C218.5 50.4183 218.5 57.9183 218 59.4183C214.5 57.9183 213 62.9183 214 64.9183C215 66.9183 216.5 67.9183 216.5 68.9183C216.5 69.9183 215.5 76.4183 215 80.4183Z" fill="#E33D3C"/>
<path d="M202 42.9182C203 39.9182 206.5 33.7182 212.5 32.9182" stroke="black" stroke-width="0.5" stroke-linecap="round"/>
<rect x="216" y="64.9182" width="2" height="2" fill="#0B0B0B"/>
<circle cx="224" cy="55.9182" r="1" fill="black"/>
<circle cx="234" cy="51.9182" r="1" fill="black"/>
<defs>
<filter id="filter0_d" x="126.341" y="47.2499" width="31.9087" height="19.6661" filterUnits="userSpaceOnUse" color-interpolation-filters="sRGB">
<feFlood flood-opacity="0" result="BackgroundImageFix"/>
<feColorMatrix in="SourceAlpha" type="matrix" values="0 0 0 0 0 0 0 0 0 0 0 0 0 0 0 0 0 0 127 0" result="hardAlpha"/>
<feOffset dy="4"/>
<feGaussianBlur stdDeviation="2"/>
<feComposite in2="hardAlpha" operator="out"/>
<feColorMatrix type="matrix" values="0 0 0 0 0 0 0 0 0 0 0 0 0 0 0 0 0 0 0.25 0"/>
<feBlend mode="normal" in2="BackgroundImageFix" result="effect1_dropShadow"/>
<feBlend mode="normal" in="SourceGraphic" in2="effect1_dropShadow" result="shape"/>
</filter>
<filter id="filter1_f" x="294" y="43.9182" width="16" height="27" filterUnits="userSpaceOnUse" color-interpolation-filters="sRGB">
<feFlood flood-opacity="0" result="BackgroundImageFix"/>
<feBlend mode="normal" in="SourceGraphic" in2="BackgroundImageFix" result="shape"/>
<feGaussianBlur stdDeviation="0.5" result="effect1_foregroundBlur"/>
</filter>
<filter id="filter2_f" x="13.6952" y="14.0092" width="17.1748" height="25.9908" filterUnits="userSpaceOnUse" color-interpolation-filters="sRGB">
<feFlood flood-opacity="0" result="BackgroundImageFix"/>
<feBlend mode="normal" in="SourceGraphic" in2="BackgroundImageFix" result="shape"/>
<feGaussianBlur stdDeviation="0.5" result="effect1_foregroundBlur"/>
</filter>
<filter id="filter3_f" x="17" y="20" width="13.87" height="19.1387" filterUnits="userSpaceOnUse" color-interpolation-filters="sRGB">
<feFlood flood-opacity="0" result="BackgroundImageFix"/>
<feBlend mode="normal" in="SourceGraphic" in2="BackgroundImageFix" result="shape"/>
<feGaussianBlur stdDeviation="0.5" result="effect1_foregroundBlur"/>
</filter>
<filter id="filter4_d" x="126.341" y="47.2499" width="31.9087" height="19.6661" filterUnits="userSpaceOnUse" color-interpolation-filters="sRGB">
<feFlood flood-opacity="0" result="BackgroundImageFix"/>
<feColorMatrix in="SourceAlpha" type="matrix" values="0 0 0 0 0 0 0 0 0 0 0 0 0 0 0 0 0 0 127 0" result="hardAlpha"/>
<feOffset dy="4"/>
<feGaussianBlur stdDeviation="2"/>
<feComposite in2="hardAlpha" operator="out"/>
<feColorMatrix type="matrix" values="0 0 0 0 0 0 0 0 0 0 0 0 0 0 0 0 0 0 0.25 0"/>
<feBlend mode="normal" in2="BackgroundImageFix" result="effect1_dropShadow"/>
<feBlend mode="normal" in="SourceGraphic" in2="effect1_dropShadow" result="shape"/>
</filter>
<filter id="filter5_f" x="295.003" y="43.5558" width="15.4479" height="15.9769" filterUnits="userSpaceOnUse" color-interpolation-filters="sRGB">
<feFlood flood-opacity="0" result="BackgroundImageFix"/>
<feBlend mode="normal" in="SourceGraphic" in2="BackgroundImageFix" result="shape"/>
<feGaussianBlur stdDeviation="0.5" result="effect1_foregroundBlur"/>
</filter>
<filter id="filter6_f" x="294" y="43.9182" width="16" height="27" filterUnits="userSpaceOnUse" color-interpolation-filters="sRGB">
<feFlood flood-opacity="0" result="BackgroundImageFix"/>
<feBlend mode="normal" in="SourceGraphic" in2="BackgroundImageFix" result="shape"/>
<feGaussianBlur stdDeviation="0.5" result="effect1_foregroundBlur"/>
</filter>
<filter id="filter7_f" x="295" y="46.9182" width="12.5" height="22" filterUnits="userSpaceOnUse" color-interpolation-filters="sRGB">
<feFlood flood-opacity="0" result="BackgroundImageFix"/>
<feBlend mode="normal" in="SourceGraphic" in2="BackgroundImageFix" result="shape"/>
<feGaussianBlur stdDeviation="0.5" result="effect1_foregroundBlur"/>
</filter>
<filter id="filter8_f" x="296" y="51" width="10" height="17" filterUnits="userSpaceOnUse" color-interpolation-filters="sRGB">
<feFlood flood-opacity="0" result="BackgroundImageFix"/>
<feBlend mode="normal" in="SourceGraphic" in2="BackgroundImageFix" result="shape"/>
<feGaussianBlur stdDeviation="0.5" result="effect1_foregroundBlur"/>
</filter>
</defs>
</svg>
