<svg width="176" height="176" viewBox="0 0 176 176" fill="none" xmlns="http://www.w3.org/2000/svg">
<path d="M176 88C176 39.4026 136.597 0 88 0C39.4026 0 0 39.4026 0 88C0 131.92 32.1755 168.327 74.2512 174.936V113.443H51.9016V88H74.2512V68.6081C74.2512 46.5555 87.3936 34.3659 107.491 34.3659C117.119 34.3659 127.192 36.0861 127.192 36.0861V57.7426H116.092C105.164 57.7426 101.749 64.5242 101.749 71.4915V88H126.153L122.255 113.443H101.749V174.936C143.824 168.34 176 131.932 176 88Z" fill="#1977F3"/>
<path d="M122.255 113.441L126.153 87.9979H101.749V71.4894C101.749 64.5345 105.152 57.7405 116.092 57.7405H127.193V36.0839C127.193 36.0839 117.119 34.3638 107.491 34.3638C87.394 34.3638 74.2516 46.541 74.2516 68.6059V87.9979H51.902V113.441H74.2516V174.934C78.7314 175.639 83.3226 175.998 88.0004 175.998C92.6782 175.998 97.2694 175.627 101.749 174.934V113.441H122.255Z" fill="#FEFEFE"/>
</svg>
