<svg width="437" height="493" viewBox="0 0 437 493" fill="none" xmlns="http://www.w3.org/2000/svg">
<path d="M390.5 0L158.5 197H232.5L109.5 319.5H184L45.0001 492.5L301.5 270.5H228.5L351.5 147.5H277L390.5 0Z" fill="#0069FE"/>
<path d="M373 88.5L339 123.5C359 133.5 428.5 249 360.5 344.5C306.1 420.9 224.167 424 190 416L151.5 458C202.667 484.167 346.406 465 402 369C474.678 243.5 415 126.167 373 88.5Z" fill="#CDE1FD"/>
<path d="M63.1273 404.166L97.1273 369.166C77.1273 359.166 7.62731 243.666 75.6273 148.166C130.027 71.7658 211.961 68.6658 246.127 76.6658L284.627 34.6658C233.461 8.49912 89.7213 27.6658 34.1273 123.666C-38.5503 249.166 21.1273 366.499 63.1273 404.166Z" fill="#CDE1FD"/>
</svg>
