<svg width="67" height="67" viewBox="0 0 67 67" fill="none" xmlns="http://www.w3.org/2000/svg">
<path fill-rule="evenodd" clip-rule="evenodd" d="M33.5 0C14.9968 0 0 14.9996 0 33.5C0 52.0004 14.9968 67 33.5 67C52.0004 67 67 52.0004 67 33.5C67 14.9996 52.0004 0 33.5 0ZM33.8908 53.0919C23.0927 53.0919 14.3492 44.3261 14.3492 33.5C14.3492 22.6739 23.0927 13.9081 33.8908 13.9081C39.1671 13.9081 43.5779 15.8539 46.9614 19.014L41.4507 24.536V24.5248C39.3988 22.565 36.797 21.56 33.8908 21.56C27.4421 21.56 22.2021 27.0205 22.2021 33.4888C22.2021 39.9515 27.4421 45.4288 33.8908 45.4288C39.7422 45.4288 43.7231 42.0732 44.5438 37.467H33.8908V29.8262H52.274C52.5196 31.1383 52.6508 32.5062 52.6508 33.9411C52.6508 45.1357 45.1775 53.0919 33.8908 53.0919V53.0919Z" fill="black"/>
</svg>
